<svg width="72" height="72" viewBox="0 0 72 72" fill="none" xmlns="http://www.w3.org/2000/svg">
<g filter="url(#filter0_d)">
<circle cx="36" cy="36" r="28" fill="url(#paint0_linear)"/>
</g>
<path d="M38.9824 30.2877C23.6284 33.8697 32.1363 37.4743 16 40.1337C18.3751 43.0473 19.1662 42.2675 40.5339 43.0473C61.9017 43.8272 52.1513 47.7471 52.1513 47.7471C58.0499 47.7471 59.0349 46.69 62.6928 46.527C79.5572 45.7753 68.9472 44.9735 65.9217 43.0473C59.0781 43.0473 64.9132 36.8322 57.3493 36.1903C56.6952 31.8041 47.1644 28.3788 38.9824 30.2877Z" fill="url(#paint1_linear)" fill-opacity="0.8"/>
<path d="M38.9824 30.2877C23.6284 33.8697 32.1363 37.4743 16 40.1337C18.3751 43.0473 19.1662 42.2675 40.5339 43.0473C61.9017 43.8272 52.1513 47.7471 52.1513 47.7471C58.0499 47.7471 59.0349 46.69 62.6928 46.527C79.5572 45.7753 68.9472 44.9735 65.9217 43.0473C59.0781 43.0473 64.9132 36.8322 57.3493 36.1903C56.6952 31.8041 47.1644 28.3788 38.9824 30.2877Z" fill="url(#paint2_linear)" fill-opacity="0.1"/>
<path d="M44.3256 54.2927C51.8753 52.8384 67.4782 53.5656 67.9816 52.8384C68.4849 52.1112 58.5761 53.5948 51.8753 47.7482C45.1746 41.9017 42.6524 48.7439 36.7756 42.6288C31.0608 36.6823 29.6609 37.6834 18.1528 44.8396C13.1196 49.9297 1.03729 50.6569 0.0324239 50.6569C-0.972442 50.6569 21.6757 55.7471 26.7093 55.7471C31.743 55.7471 36.7758 55.7471 44.3256 54.2927Z" fill="url(#paint3_linear)" fill-opacity="0.8"/>
<path d="M44.3256 54.2927C51.8753 52.8384 67.4782 53.5656 67.9816 52.8384C68.4849 52.1112 58.5761 53.5948 51.8753 47.7482C45.1746 41.9017 42.6524 48.7439 36.7756 42.6288C31.0608 36.6823 29.6609 37.6834 18.1528 44.8396C13.1196 49.9297 1.03729 50.6569 0.0324239 50.6569C-0.972442 50.6569 21.6757 55.7471 26.7093 55.7471C31.743 55.7471 36.7758 55.7471 44.3256 54.2927Z" fill="url(#paint4_linear)" fill-opacity="0.1"/>
<defs>
<filter id="filter0_d" x="6" y="8" width="60" height="60" filterUnits="userSpaceOnUse" color-interpolation-filters="sRGB">
<feFlood flood-opacity="0" result="BackgroundImageFix"/>
<feColorMatrix in="SourceAlpha" type="matrix" values="0 0 0 0 0 0 0 0 0 0 0 0 0 0 0 0 0 0 127 0"/>
<feOffset dy="2"/>
<feGaussianBlur stdDeviation="1"/>
<feColorMatrix type="matrix" values="0 0 0 0 0 0 0 0 0 0 0 0 0 0 0 0 0 0 0.25 0"/>
<feBlend mode="normal" in2="BackgroundImageFix" result="effect1_dropShadow"/>
<feBlend mode="normal" in="SourceGraphic" in2="effect1_dropShadow" result="shape"/>
</filter>
<linearGradient id="paint0_linear" x1="15.875" y1="15.875" x2="63.9968" y2="59.2712" gradientUnits="userSpaceOnUse">
<stop offset="0.162966" stop-color="#FFE975"/>
<stop offset="0.53915" stop-color="#FFB729"/>
<stop offset="0.742056" stop-color="#FF9900"/>
</linearGradient>
<linearGradient id="paint1_linear" x1="42.1239" y1="55.0031" x2="42.1239" y2="15.7349" gradientUnits="userSpaceOnUse">
<stop stop-color="#814421"/>
<stop offset="0.707821" stop-color="#A79C96" stop-opacity="0.28"/>
<stop offset="1" stop-color="#5A2506"/>
</linearGradient>
<linearGradient id="paint2_linear" x1="44" y1="29.7471" x2="44" y2="47.7471" gradientUnits="userSpaceOnUse">
<stop stop-color="white"/>
<stop offset="1" stop-color="white" stop-opacity="0"/>
</linearGradient>
<linearGradient id="paint3_linear" x1="31.7219" y1="62.6" x2="31.7219" y2="25.5134" gradientUnits="userSpaceOnUse">
<stop stop-color="#814421"/>
<stop offset="0.707821" stop-color="#A79C96" stop-opacity="0.28"/>
<stop offset="1" stop-color="#5A2506"/>
</linearGradient>
<linearGradient id="paint4_linear" x1="34" y1="38.7471" x2="34" y2="55.7471" gradientUnits="userSpaceOnUse">
<stop stop-color="white"/>
<stop offset="1" stop-color="white" stop-opacity="0"/>
</linearGradient>
</defs>
</svg>
